<?xml version="1.0" standalone="no"?>
<!DOCTYPE svg PUBLIC "-//W3C//DTD SVG 1.1//EN" "www.w3.org/Graphics/SVG/1.1/DTD/svg11.dtd" >
<svg xmlns="www.w3.org/2000/svg">
<metadata></metadata>
<defs>
<font id="castlight" horiz-adv-x="1019" >
<font-face units-per-em="2048" ascent="1567" descent="-481" />
<missing-glyph horiz-adv-x="522" />
<glyph unicode="&#xfb01;" horiz-adv-x="1062" d="M33 918v120h164v148q0 130 74 202t188 72q61 0 116 -14l-18 -131q-50 18 -92 18q-67 0 -102 -41.5t-35 -113.5v-140h563v-1038h-133v918h-430v-918h-131v918h-164zM745 1237v182h158v-182h-158z" />
<glyph unicode="&#xfb02;" horiz-adv-x="1118" d="M33 918v120h164v148q0 130 74 202t188 72q61 0 116 -14l-18 -131q-50 18 -92 18q-67 0 -102 -41.5t-35 -113.5v-140h215v-120h-215v-918h-131v918h-164zM729 252v1194h131v-1178q0 -72 34 -113.5t97 -41.5q32 0 82 16l19 -129q-55 -14 -113 -14q-105 0 -177.5 69 t-72.5 197z" />
<glyph unicode="&#xfb03;" horiz-adv-x="1636" d="M33 918v120h164v148q0 130 74 202t188 72q61 0 116 -14l-18 -131q-50 18 -92 18q-67 0 -102 -41.5t-35 -113.5v-140h442v148q0 130 74 202t188 72q62 0 117 -14l-19 -131q-50 18 -92 18q-67 0 -102 -41.5t-35 -113.5v-140h563v-1038h-133v918h-430v-918h-131v918h-442 v-918h-131v918h-164zM1319 1237v182h158v-182h-158z" />
<glyph unicode="&#xfb04;" horiz-adv-x="1691" d="M33 918v120h164v148q0 130 74 202t188 72q61 0 116 -14l-18 -131q-50 18 -92 18q-67 0 -102 -41.5t-35 -113.5v-140h442v148q0 130 74 202t188 72q62 0 117 -14l-19 -131q-50 18 -92 18q-67 0 -102 -41.5t-35 -113.5v-140h215v-120h-215v-918h-131v918h-442v-918h-131 v918h-164zM1303 252v1194h131v-1178q0 -72 34 -113.5t97 -41.5q32 0 82 16l18 -129q-55 -14 -113 -14q-105 0 -177 69t-72 197z" />
<glyph horiz-adv-x="0" />
<glyph horiz-adv-x="682" />
<glyph unicode=" "  horiz-adv-x="522" />
<glyph unicode="&#x09;" horiz-adv-x="522" />
<glyph unicode="&#xa0;" horiz-adv-x="522" />
<glyph unicode="!" horiz-adv-x="544" d="M182 0v195h180v-195h-180zM186 1403h172l-26 -1028h-119z" />
<glyph unicode="&#x22;" horiz-adv-x="626" d="M96 1028v410h144v-410h-144zM387 1028v410h143v-410h-143z" />
<glyph unicode="#" horiz-adv-x="1275" d="M106 395v121h222l49 395h-207v121h221l45 371h123l-45 -371h328l45 371h123l-45 -371h213l-15 -121h-213l-49 -395h213l-14 -121h-213l-49 -395h-123l49 395h-328l-49 -395h-123l49 395h-207zM451 516h327l49 395h-327z" />
<glyph unicode="$" d="M139 1040q0 149 80.5 247.5t235.5 125.5v215h120v-205q105 0 240 -43l-18 -143q-121 53 -234 53q-132 0 -208 -62t-76 -167q0 -61 34 -109t88 -82t119.5 -66t131 -70t119.5 -83.5t88 -116.5t34 -161q0 -150 -82 -253t-236 -130v-254h-120v244q-144 3 -297 63l18 145 q94 -39 161.5 -57t135.5 -18q129 0 205 66.5t76 172.5q0 70 -34 125t-88 92t-120 70t-131.5 68.5t-119.5 77.5t-88 107t-34 148z" />
<glyph unicode="%" horiz-adv-x="1593" d="M53 971q0 209 81 306t214 97t214 -97t81 -306q0 -210 -81 -308t-214 -98t-214 98t-81 308zM180 971q0 -149 44.5 -227t123.5 -78t123.5 78t44.5 227q0 148 -44.5 225.5t-123.5 77.5t-123.5 -77.5t-44.5 -225.5zM354 -143l760 1628h125l-760 -1628h-125zM950 393 q0 209 81 306.5t214 97.5t214 -97.5t81 -306.5q0 -210 -81 -307.5t-214 -97.5t-214 97.5t-81 307.5zM1077 393q0 -149 44.5 -227t123.5 -78t123.5 78t44.5 227q0 148 -44.5 225.5t-123.5 77.5t-123.5 -77.5t-44.5 -225.5z" />
<glyph unicode="&#x26;" horiz-adv-x="1124" d="M109 463q0 386 276 465q-34 69 -46.5 116t-12.5 103q0 129 82 202.5t206 73.5q62 0 117 -14l-18 -131q-50 18 -92 18q-75 0 -117.5 -41t-42.5 -108q0 -63 33 -133t143 -246l229 -367q30 123 33 287h137q-6 -263 -82 -428l164 -260h-164l-80 129q-126 -149 -333 -149 q-90 0 -165.5 26.5t-136.5 81.5t-95.5 151t-34.5 224zM242 463q0 -175 81.5 -269t215.5 -94q169 0 262 146l-355 569q-204 -48 -204 -352z" />
<glyph unicode="'" horiz-adv-x="335" d="M96 1028v410h144v-410h-144z" />
<glyph unicode="(" horiz-adv-x="591" d="M152 643q0 482 229 905h115q-195 -431 -195 -905q0 -476 195 -907h-115q-229 423 -229 907z" />
<glyph unicode=")" horiz-adv-x="591" d="M96 -264q195 431 195 907q0 474 -195 905h115q229 -423 229 -905q0 -484 -229 -907h-115z" />
<glyph unicode="*" horiz-adv-x="892" d="M106 1147l41 125l252 -101l-18 271h131l-18 -271l251 101l41 -125l-262 -66l174 -211l-106 -77l-146 233l-145 -233l-106 77l174 211z" />
<glyph unicode="+" d="M41 492v131h405v407h132v-407h409l-14 -131h-395v-408h-132v408h-405z" />
<glyph unicode="," horiz-adv-x="432" d="M53 -256l92 451h181l-148 -451h-125z" />
<glyph unicode="-" horiz-adv-x="714" d="M106 489v138h508l-14 -138h-494z" />
<glyph unicode="." horiz-adv-x="436" d="M139 0v195h180v-195h-180z" />
<glyph unicode="/" horiz-adv-x="643" d="M76 0l387 1446h125l-387 -1446h-125z" />
<glyph unicode="0" d="M84 682q0 150 22 269.5t60.5 199.5t93 132.5t116.5 75.5t134 23t134 -23t116.5 -75.5t93 -132.5t60.5 -199.5t22 -269.5q0 -187 -33 -326t-93 -219.5t-134.5 -118.5t-165.5 -38t-165.5 38t-134.5 118.5t-93 219.5t-33 326zM217 682q0 -284 76.5 -433t216.5 -149 t216.5 149t76.5 433t-76.5 432t-216.5 148t-216.5 -148t-76.5 -432z" />
<glyph unicode="1" d="M199 1151l321 211h115v-1235h276l-14 -127h-692v127h299v1075l-287 -188z" />
<glyph unicode="2" d="M117 0v119l315 389q63 78 94 117t75 101t64.5 103t36 91.5t15.5 97.5q0 115 -71 176t-179 61q-115 0 -305 -90l-19 135q177 82 320 82q104 0 191 -41t141.5 -123.5t54.5 -193.5q0 -126 -63.5 -248.5t-235.5 -331.5l-260 -317h586l-15 -127h-745z" />
<glyph unicode="3" d="M121 43l18 139q96 -39 166.5 -57.5t143.5 -18.5q134 0 214 75.5t80 203.5q0 118 -85 187t-248 69h-125v119h61q367 0 367 258q0 112 -70.5 174.5t-177.5 62.5q-122 0 -301 -75l-19 135q161 67 301 67q172 0 286 -98t114 -270q0 -102 -62 -180.5t-168 -120.5 q126 -41 193.5 -127t67.5 -207q0 -177 -114 -288t-331 -111q-148 0 -311 63z" />
<glyph unicode="4" d="M45 356v115l539 891h202v-879h183l-15 -127h-168v-356h-131v356h-610zM203 483h452l4 764z" />
<glyph unicode="5" d="M141 43l19 139q92 -40 157.5 -58t133.5 -18q140 0 224.5 84.5t84.5 219.5t-84 219t-227 84q-106 0 -271 -43l19 692h663l-14 -127h-520l-15 -422q103 21 170 21q186 0 299 -116.5t113 -297.5q0 -201 -117 -320.5t-340 -119.5q-142 0 -295 63z" />
<glyph unicode="6" d="M115 639q0 355 137.5 546t384.5 191q112 0 225 -30l-18 -140q-122 43 -215 43q-85 0 -152 -35t-108.5 -91t-69.5 -133t-39 -154.5t-12 -161.5q133 160 307 160q167 0 271 -120.5t104 -305.5q0 -184 -106.5 -306t-282.5 -122q-70 0 -131.5 21.5t-116.5 71t-94 124 t-61.5 187.5t-22.5 255zM254 537q9 -219 85.5 -328t201.5 -109q116 0 186 88t70 220t-69 219.5t-185 87.5q-53 0 -103 -20t-87 -51.5t-60 -57t-39 -49.5z" />
<glyph unicode="7" d="M129 1235v127h776v-121l-487 -1241h-148l492 1235h-633z" />
<glyph unicode="8" d="M84 334q0 72 22.5 129.5t67.5 100t90 71t111 59.5q-56 29 -97.5 60t-78.5 74.5t-56.5 102.5t-19.5 132q0 99 54.5 173t141.5 110t191 36t191 -36t141.5 -110t54.5 -173q0 -65 -20 -119.5t-57.5 -96t-79.5 -72t-99 -60.5q66 -32 112.5 -62.5t91.5 -75.5t68 -106t23 -137 q0 -151 -113.5 -252.5t-312.5 -101.5t-312.5 101.5t-113.5 252.5zM217 354q0 -104 83.5 -179t209.5 -75t209.5 75t83.5 179q0 43 -18.5 80.5t-37 60.5t-70.5 53.5t-74.5 41t-93.5 41.5q-15 7 -22 10q-52 -26 -84 -44t-72 -46t-61.5 -54.5t-37 -63.5t-15.5 -79zM256 1042 q0 -52 20.5 -94t63 -75.5t84.5 -56.5t108 -52q111 53 171.5 116.5t60.5 161.5q0 105 -73.5 162.5t-180.5 57.5t-180.5 -57.5t-73.5 -162.5z" />
<glyph unicode="9" d="M102 954q0 184 107 306t283 122q70 0 131.5 -21.5t116.5 -71t94 -124t61.5 -187.5t22.5 -255q0 -355 -138 -546t-385 -191q-112 0 -225 30l18 140q122 -43 215 -43q85 0 152 35t108.5 91t69.5 133t39 154.5t12 161.5q-133 -160 -307 -160q-167 0 -271 120.5t-104 305.5z M236 954q0 -133 68.5 -220t184.5 -87q53 0 103 20t87 51.5t60 57t39 49.5q-9 220 -85 328.5t-201 108.5q-116 0 -186 -88t-70 -220z" />
<glyph unicode=":" horiz-adv-x="436" d="M139 0v195h180v-195h-180zM139 844v194h180v-194h-180z" />
<glyph unicode=";" horiz-adv-x="432" d="M53 -256l92 451h181l-148 -451h-125zM145 844v194h181v-194h-181z" />
<glyph unicode="&#x3c;" d="M59 498v118l838 410v-145l-680 -322l680 -326v-145z" />
<glyph unicode="=" d="M57 332v131h916l-15 -131h-901zM57 651v131h916l-15 -131h-901z" />
<glyph unicode="&#x3e;" d="M123 88v145l680 326l-680 322v145l838 -410v-118z" />
<glyph unicode="?" horiz-adv-x="849" d="M96 1356q154 67 295 67q96 0 178 -41t133.5 -122.5t51.5 -188.5q0 -83 -30.5 -156t-74 -129t-86.5 -112t-73.5 -130t-30.5 -159v-10h-140v31q0 85 30.5 163t73.5 137t86.5 114t74 117.5t30.5 123.5q0 111 -64 170t-169 59q-58 0 -117.5 -18t-148.5 -58zM299 0v195h180 v-195h-180z" />
<glyph unicode="@" horiz-adv-x="1773" d="M119 500q0 186 43.5 339.5t116.5 258.5t172 177t208.5 105t227.5 33q104 0 199.5 -23t183.5 -69.5t159.5 -122.5t124.5 -175.5t82 -234.5t29 -294q0 -104 -14.5 -187.5t-40.5 -137.5t-57 -91.5t-68.5 -56.5t-70 -27t-66.5 -8q-50 0 -92 15t-69 40t-43 47.5t-26 46.5 q-130 -149 -280 -149q-62 0 -121.5 30t-108 86.5t-78.5 149.5t-30 207q0 125 25.5 222t67 158t100 100.5t119.5 55t130 15.5q62 0 132 -12t110 -24l39 -11v-666q0 -195 129 -195q31 0 60 18t57 59.5t44.5 122.5t16.5 192q0 376 -175 588t-468 212q-134 0 -249.5 -54.5 t-200 -155t-133 -251t-48.5 -333.5q0 -182 48 -332.5t132 -250.5t199.5 -155t249.5 -55q147 0 319 70l19 -135q-158 -58 -336 -58q-118 0 -227.5 33t-208.5 105.5t-172 177.5t-116.5 259.5t-43.5 340.5zM633 457q0 -158 63.5 -252t159.5 -94q58 0 113.5 29t124.5 98 q-2 28 -2 59v575q-82 19 -148 19q-141 0 -226 -103t-85 -331z" />
<glyph unicode="A" horiz-adv-x="1097" d="M12 0l453 1403h168l452 -1403h-153l-113 367h-543l-110 -367h-154zM315 494h465l-235 757z" />
<glyph unicode="B" horiz-adv-x="1079" d="M182 4v1397q134 4 221 5q29 0 54 -1q213 -3 340 -98.5t127 -282.5q0 -202 -191 -287q112 -41 175 -128.5t63 -217.5q0 -191 -129.5 -290.5t-341.5 -102.5h-45q-100 0 -273 6zM319 131q72 -4 144 -4q180 0 274 66.5t94 197.5q0 262 -362 262l-150 -2v-520zM319 772 q50 -2 101 -2q364 0 364 254q0 252 -364 252l-101 -2v-502z" />
<glyph unicode="C" horiz-adv-x="1054" d="M115 702q0 129 20.5 236.5t59 185.5t90.5 136t117.5 93.5t137.5 52.5t154 17q133 0 279 -51l-19 -143q-143 61 -268 61q-209 0 -320.5 -148t-111.5 -440q0 -289 110.5 -439t307.5 -150q150 0 299 88l18 -146q-64 -36 -148 -55.5t-159 -19.5q-95 0 -177 24t-155 78 t-124.5 136.5t-81 205.5t-29.5 278z" />
<glyph unicode="D" horiz-adv-x="1243" d="M182 2v1399q141 4 238 5q32 0 59 -1q115 -1 211.5 -24.5t180 -76.5t141.5 -132.5t90.5 -199t32.5 -270.5q0 -152 -33 -271.5t-90.5 -199.5t-141 -132.5t-180 -76t-211.5 -24.5h-59q-97 0 -238 4zM319 129q74 -2 150 -1q264 0 395 142t131 432q0 289 -131 431.5 t-395 142.5l-150 -2v-1145z" />
<glyph unicode="E" horiz-adv-x="952" d="M182 0v1403h664l-15 -133h-512v-479h465l-14 -134h-451v-524h547l-14 -133h-670z" />
<glyph unicode="F" horiz-adv-x="899" d="M182 0v1403h664l-15 -133h-512v-510h486l-14 -133h-472v-627h-137z" />
<glyph unicode="G" horiz-adv-x="1179" d="M109 702q0 159 35 284.5t93 206t140 133.5t170 75t188 22q147 0 293 -51l-18 -143q-147 61 -285 61q-107 0 -192.5 -34t-150 -103.5t-99.5 -184t-35 -266.5q0 -596 477 -596q91 0 178 19v532h-244v134h381v-762q-16 -5 -45.5 -13.5t-112 -22t-157.5 -13.5q-109 0 -200 24 t-169 78t-132 136.5t-84.5 205t-30.5 278.5z" />
<glyph unicode="H" horiz-adv-x="1267" d="M182 0v1403h137v-612h629v612h137v-1403h-137v657h-629v-657h-137z" />
<glyph unicode="I" horiz-adv-x="501" d="M182 0v1403h137v-1403h-137z" />
<glyph unicode="J" horiz-adv-x="636" d="M14 6l19 139q71 -26 119 -26q186 0 186 225v1059h137v-1081q0 -168 -90.5 -252t-228.5 -84q-75 0 -142 20z" />
<glyph unicode="K" horiz-adv-x="1085" d="M182 0v1403h137v-664l551 664h172l-567 -670l619 -733h-189l-586 707v-707h-137z" />
<glyph unicode="L" horiz-adv-x="862" d="M182 0v1403h137v-1270h529l-14 -133h-652z" />
<glyph unicode="M" horiz-adv-x="1572" d="M139 0l82 1403h205l365 -1256l356 1256h205l82 -1403h-138l-63 1233l-363 -1233h-176l-362 1233l-64 -1233h-129z" />
<glyph unicode="N" horiz-adv-x="1280" d="M182 0v1403h209l582 -1245l-4 1245h129v-1403h-209l-582 1245l4 -1245h-129z" />
<glyph unicode="O" horiz-adv-x="1327" d="M119 702q0 192 42.5 334.5t118.5 225t172 122t212 39.5q92 0 171.5 -24t149 -78.5t118.5 -136.5t77 -205t28 -277q0 -155 -28 -278t-77 -205.5t-118.5 -136.5t-149 -78t-171.5 -24t-171.5 24t-149 78t-119 136.5t-77.5 205.5t-28 278zM258 702q0 -292 106 -444t300 -152 t299.5 152t105.5 444t-105.5 443t-299.5 151t-300 -151.5t-106 -442.5z" />
<glyph unicode="P" horiz-adv-x="1005" d="M182 0v1401q136 4 226 5q30 0 55 -1q104 -2 189 -27t150.5 -75t101.5 -131t36 -187q0 -89 -25 -159t-69.5 -118t-109.5 -79.5t-141.5 -45.5t-168.5 -14l-107 2v-571h-137zM319 698q54 -2 107 -2q375 0 375 289q0 291 -375 291l-107 -2v-576z" />
<glyph unicode="Q" horiz-adv-x="1327" d="M119 702q0 192 42.5 334.5t118.5 225t172 122t212 39.5q92 0 171.5 -24t149 -78.5t118.5 -136.5t77 -205t28 -277q0 -480 -260 -647l240 -280h-189l-182 223q-73 -18 -153 -18q-92 0 -171.5 24t-149 78t-119 136.5t-77.5 205.5t-28 278zM258 702q0 -292 106 -444 t300 -152t299.5 152t105.5 444t-105.5 443t-299.5 151t-300 -151.5t-106 -442.5z" />
<glyph unicode="R" horiz-adv-x="1067" d="M182 0v1401q136 4 226 5q30 0 55 -1q213 -3 340 -102t127 -293q0 -310 -320 -373l453 -637h-174l-436 623l-134 2v-625h-137zM319 748q54 -3 107 -3q183 0 274 64.5t91 200.5q0 266 -365 266l-107 -2v-526z" />
<glyph unicode="S" horiz-adv-x="935" d="M96 1040q0 176 111 279.5t323 103.5q107 0 242 -43l-18 -143q-121 53 -234 53q-132 0 -208 -62t-76 -167q0 -61 34 -109t88 -82t119.5 -66t131 -70t119.5 -83.5t88 -116.5t34 -161q0 -177 -111 -285t-319 -108q-145 0 -305 63l18 145q94 -39 161.5 -57t135.5 -18 q129 0 205 66.5t76 172.5q0 70 -34 125t-88 92t-119.5 70t-131.5 68.5t-120 77.5t-88 107t-34 148z" />
<glyph unicode="T" horiz-adv-x="894" d="M0 1270v133h901l-14 -133h-371v-1270h-137v1270h-379z" />
<glyph unicode="U" horiz-adv-x="1245" d="M162 449v954h137v-932q0 -175 80 -270t244 -95t243.5 95t79.5 270v932h137v-954q0 -235 -124.5 -352t-335.5 -117t-336 117t-125 352z" />
<glyph unicode="V" horiz-adv-x="1101" d="M29 1403h153l373 -1247l365 1247h153l-438 -1403h-168z" />
<glyph unicode="W" horiz-adv-x="1597" d="M66 1403h149l250 -1213l242 1213h184l252 -1213l239 1213h150l-309 -1403h-170l-258 1223l-250 -1223h-170z" />
<glyph unicode="X" horiz-adv-x="1056" d="M12 0l437 737l-396 666h164l320 -545l303 545h164l-396 -666l436 -737h-163l-361 608l-344 -608h-164z" />
<glyph unicode="Y" horiz-adv-x="1001" d="M0 1403h158l350 -696l336 696h157l-432 -844v-559h-137v559z" />
<glyph unicode="Z" horiz-adv-x="954" d="M86 0v121l596 1149h-569v133h735v-121l-608 -1149h632l-14 -133h-772z" />
<glyph unicode="[" horiz-adv-x="579" d="M182 -264v1812h318l-15 -127h-176v-1558h191l-15 -127h-303z" />
<glyph unicode="\" horiz-adv-x="643" d="M55 1446h125l387 -1446h-125z" />
<glyph unicode="]" horiz-adv-x="579" d="M88 -137h182v1558h-182v127h309v-1812h-309v127z" />
<glyph unicode="^" d="M68 637l350 809h186l350 -809h-145l-299 700l-297 -700h-145z" />
<glyph unicode="_" d="M86 -137h856l-12 -113h-844v113z" />
<glyph unicode="`" horiz-adv-x="442" d="M31 1485h188l193 -287h-136z" />
<glyph unicode="a" horiz-adv-x="952" d="M96 301q0 72 26 129.5t69 93.5t102.5 60t120 34.5t129.5 12.5l137 -2v102q0 98 -47.5 149.5t-165.5 51.5q-54 0 -110 -9.5t-89 -19.5t-92 -29l-18 138q172 47 309 47q165 0 255.5 -77.5t90.5 -225.5v-756h-102l-21 119q-134 -139 -280 -139q-55 0 -109.5 20t-101 58.5 t-75 101.5t-28.5 141zM229 295q0 -84 56.5 -136.5t142.5 -52.5q63 0 122 30.5t130 101.5v272l-145 2q-144 -3 -225 -58.5t-81 -158.5z" />
<glyph unicode="b" horiz-adv-x="1021" d="M162 29v1417h131v-477q74 49 130 69.5t122 20.5q72 0 138 -31.5t119.5 -91.5t85.5 -158t32 -219q0 -131 -27 -233.5t-70.5 -166.5t-105 -105t-125.5 -57.5t-137 -16.5q-65 0 -138.5 12.5t-114.5 24.5zM293 113q97 -19 158 -19q72 0 130.5 25.5t105.5 78.5t73 145.5 t26 217.5q0 175 -71 276t-187 101q-100 0 -235 -88v-737z" />
<glyph unicode="c" horiz-adv-x="806" d="M109 520q0 116 21.5 207.5t59 153t92 102t117 58.5t136.5 18q97 0 204 -39l-18 -137q-103 49 -197 49q-282 0 -282 -412q0 -205 71.5 -309.5t200.5 -104.5q106 0 219 72l19 -141q-102 -57 -228 -57q-89 0 -162 29.5t-131 91t-90 168.5t-32 251z" />
<glyph unicode="d" horiz-adv-x="1044" d="M115 520q0 140 31.5 246.5t86.5 169t122.5 93t144.5 30.5q59 0 113 -20.5t128 -69.5v477h131v-1446h-100l-20 119q-84 -79 -145 -109t-134 -30q-45 0 -92 17t-95.5 58t-86 101t-61 154.5t-23.5 209.5zM248 520q0 -201 71 -307.5t170 -106.5q61 0 116 29.5t136 102.5v612 q-124 82 -235 82q-118 0 -188 -104.5t-70 -307.5z" />
<glyph unicode="e" horiz-adv-x="952" d="M109 520q0 144 31 250t88 168t129 91.5t161 29.5q187 -1 278 -143q70 -110 70 -310q0 -60 -6 -127h-616q6 -184 76.5 -278.5t201.5 -94.5q56 0 113.5 13t88 24.5t83.5 34.5l18 -141q-149 -57 -309 -57q-70 0 -129.5 17.5t-111.5 58.5t-88.5 102.5t-57 153.5t-20.5 208z M246 602h487q1 18 1 35q0 144 -52 218q-58 83 -162 83q-117 0 -188 -85.5t-86 -250.5z" />
<glyph unicode="f" horiz-adv-x="579" d="M33 918v120h164v148q0 130 74 202t188 72q61 0 116 -14l-18 -131q-50 18 -92 18q-67 0 -102 -41.5t-35 -113.5v-140h215v-120h-215v-918h-131v918h-164z" />
<glyph unicode="g" horiz-adv-x="999" d="M102 487q0 129 26.5 230t70.5 164.5t105.5 104.5t125.5 57t137 16q65 0 138.5 -12.5t114.5 -24.5l40 -12v-1071q0 -158 -99.5 -256.5t-275.5 -98.5q-143 0 -303 45l19 142q166 -60 282 -60q66 0 115.5 20.5t77 55.5t40.5 76t13 88v139q-74 -49 -130 -69.5t-122 -20.5 q-72 0 -138 30.5t-119.5 89t-85.5 153.5t-32 214zM236 485q0 -168 71 -266t187 -98q100 0 235 88v711q-92 18 -158 18q-72 0 -130.5 -24t-105.5 -75t-73 -141t-26 -213z" />
<glyph unicode="h" horiz-adv-x="1067" d="M172 0v1446h131v-526q104 76 178 107.5t152 31.5q126 0 205.5 -82.5t79.5 -231.5v-745h-134v729q0 96 -44.5 149.5t-135.5 53.5q-114 0 -301 -135v-797h-131z" />
<glyph unicode="i" horiz-adv-x="477" d="M160 1237v182h157v-182h-157zM172 0v1038h133v-1038h-133z" />
<glyph unicode="j" horiz-adv-x="454" d="M-59 -395l18 129q53 -17 82 -17q63 0 97 42t34 114v1165h131v-1181q0 -128 -72.5 -197.5t-177.5 -69.5q-54 0 -112 15zM158 1237v182h157v-182h-157z" />
<glyph unicode="k" horiz-adv-x="937" d="M172 0v1446h131v-856l377 448h176l-410 -454l478 -584h-185l-436 555v-555h-131z" />
<glyph unicode="l" horiz-adv-x="538" d="M150 252v1194h131v-1178q0 -72 34 -113.5t97 -41.5q32 0 82 16l18 -129q-55 -14 -113 -14q-105 0 -177 69t-72 197z" />
<glyph unicode="m" horiz-adv-x="1622" d="M172 0v1038h102l21 -123q101 79 169 111.5t140 32.5q87 0 153.5 -40.5t100.5 -115.5q111 88 183.5 122t146.5 34q126 0 205.5 -82.5t79.5 -231.5v-745h-134v729q0 96 -44.5 149.5t-135.5 53.5q-103 0 -272 -137q2 -25 2 -50v-745h-133v729q0 96 -45 149.5t-136 53.5 q-100 0 -270 -135v-797h-133z" />
<glyph unicode="n" horiz-adv-x="1069" d="M172 0v1038h102l21 -125q110 79 185.5 112.5t154.5 33.5q126 0 205.5 -82.5t79.5 -231.5v-745h-134v729q0 96 -44.5 149.5t-135.5 53.5q-114 0 -301 -135v-797h-133z" />
<glyph unicode="o" horiz-adv-x="1036" d="M109 520q0 144 31 250t88 168t129 91.5t161 29.5q71 0 131 -18t112 -58.5t88.5 -102t57.5 -153t21 -207.5t-21 -208t-57.5 -153.5t-88.5 -102t-112 -58.5t-131 -18q-89 0 -161 29.5t-129 91t-88 168t-31 251.5zM242 520q0 -207 72 -313.5t204 -106.5t204.5 107t72.5 313 t-72 312t-205 106q-132 0 -204 -106t-72 -312z" />
<glyph unicode="p" horiz-adv-x="1044" d="M172 -395v1433h100l21 -118q84 79 144.5 109t133.5 30q45 0 92.5 -17t95.5 -57t86 -98t61.5 -148.5t23.5 -199.5q0 -147 -33 -258.5t-89.5 -175t-122.5 -94.5t-140 -31q-59 0 -113.5 21t-128.5 69v-465h-131zM303 188q124 -82 236 -82q113 0 185.5 109.5t72.5 323.5 q0 187 -71.5 290t-170.5 103q-61 0 -116.5 -29t-135.5 -102v-613z" />
<glyph unicode="q" horiz-adv-x="1021" d="M102 479q0 131 27 233.5t70.5 166.5t105 105.5t125.5 58t137 16.5q65 0 138.5 -12.5t114.5 -24.5l40 -12v-1405h-131v465q-74 -49 -130 -69.5t-122 -20.5q-72 0 -138 31.5t-119.5 91.5t-85.5 157.5t-32 218.5zM236 477q0 -175 71 -276t187 -101q100 0 235 88v732 q-92 18 -158 18q-72 0 -130.5 -24.5t-105.5 -76.5t-73 -143.5t-26 -216.5z" />
<glyph unicode="r" horiz-adv-x="649" d="M172 0v1038h102l25 -137q48 59 95 94.5t90 46.5q41 11 74 11q2 -1 4 -1q34 0 73 -10l-19 -137q-35 8 -67 8.5t-60 -7t-51.5 -17.5t-48 -27.5t-42.5 -32.5t-42 -38v-791h-133z" />
<glyph unicode="s" horiz-adv-x="770" d="M96 764q0 134 87 214.5t253 80.5q88 0 203 -33l-18 -137q-103 43 -195 43q-95 0 -145 -39.5t-50 -108.5q0 -43 25.5 -77t66.5 -58.5t90 -48.5t98.5 -52t90.5 -62t66.5 -86.5t25.5 -118.5q0 -133 -89 -217t-253 -84q-118 0 -250 49l19 141q153 -64 241 -64q95 0 146 45.5 t51 108.5q0 49 -25.5 88.5t-66.5 66t-90 51t-98.5 51t-90.5 58t-66.5 80t-25.5 109.5z" />
<glyph unicode="t" horiz-adv-x="632" d="M33 918v120h166v215l129 47v-262h215v-120h-215v-650q0 -72 35 -113.5t102 -41.5q45 0 92 20l18 -133q-55 -14 -116 -14q-113 0 -187.5 70.5t-74.5 195.5v666h-164z" />
<glyph unicode="u" horiz-adv-x="1062" d="M150 293v745h133v-729q0 -96 44.5 -149.5t135.5 -53.5q58 0 126 29.5t169 102.5v800h133v-1038h-103l-22 119q-105 -75 -179.5 -107t-152.5 -32q-126 0 -205 82t-79 231z" />
<glyph unicode="v" horiz-adv-x="917" d="M35 1038h147l285 -895l268 895h148l-342 -1038h-164z" />
<glyph unicode="w" horiz-adv-x="1470" d="M39 1038h147l240 -895l223 895h172l238 -895l225 895h148l-297 -1038h-164l-240 895l-231 -895h-164z" />
<glyph unicode="x" horiz-adv-x="894" d="M29 0l342 547l-312 491h158l238 -383l223 383h158l-312 -491l342 -547h-157l-269 432l-254 -432h-157z" />
<glyph unicode="y" horiz-adv-x="917" d="M35 1038h147l285 -895l268 895h148l-412 -1249q-66 -199 -242 -199q-54 0 -112 15l18 129q53 -17 82 -17q98 0 135 119l54 164h-29z" />
<glyph unicode="z" horiz-adv-x="837" d="M74 0v119l518 792h-498v127h656v-118l-527 -793h545l-16 -127h-678z" />
<glyph unicode="{" horiz-adv-x="645" d="M117 578v127q74 0 113.5 48.5t39.5 161.5v385q0 129 62.5 188.5t165.5 59.5h90l-15 -127h-75q-47 0 -74 -32.5t-27 -94.5v-389q0 -66 -15.5 -117.5t-37.5 -77.5t-43.5 -42.5t-36.5 -20.5l-16 -4q6 -1 16 -4.5t36 -21t45.5 -43.5t35.5 -77.5t16 -117.5v-389 q0 -62 27 -94.5t74 -32.5h90l-15 -127h-75q-103 0 -165.5 59.5t-62.5 188.5v383q0 113 -39.5 162t-113.5 49z" />
<glyph unicode="|" horiz-adv-x="485" d="M182 -264v1812h121v-1812h-121z" />
<glyph unicode="}" horiz-adv-x="645" d="M66 -137h81q47 0 74 32.5t27 94.5v389q0 66 15.5 117.5t37 78t43.5 43t38 20.5l15 5q-3 1 -8.5 2t-21 8.5t-29.5 18t-31 31.5t-29.5 47t-21 66.5t-8.5 88.5v389q0 62 -27 94.5t-74 32.5h-81v127h81q103 0 165.5 -59.5t62.5 -188.5v-385q0 -113 39.5 -161.5t113.5 -48.5 v-127q-74 0 -113.5 -49t-39.5 -162v-383q0 -129 -62.5 -188.5t-165.5 -59.5h-81v127z" />
<glyph unicode="~" d="M59 596q5 3 13.5 8.5t36.5 19t57.5 23.5t73 18.5t86.5 8.5q53 0 108 -16.5t94.5 -36t91 -36t97.5 -16.5q49 0 107 18.5t91 36.5l33 19l15 -127q-5 -3 -13.5 -8.5t-36.5 -19t-57.5 -23.5t-73 -18.5t-86.5 -8.5q-53 0 -108 16.5t-94.5 36t-91 36t-97.5 16.5 q-49 0 -107 -18.5t-91 -36.5l-33 -19z" />
<glyph unicode="&#xa1;" horiz-adv-x="544" d="M182 844v194h180v-194h-180zM186 -365l27 1029h119l26 -1029h-172z" />
<glyph unicode="&#xa2;" d="M207 520q0 244 89 373.5t243 157.5v213h114v-205q98 -8 185 -39l-19 -137q-103 49 -196 49q-138 0 -210.5 -102.5t-72.5 -309.5q0 -205 71.5 -309.5t200.5 -104.5q106 0 219 72l19 -141q-80 -46 -197 -57v-244h-114v250q-153 28 -242.5 158t-89.5 376z" />
<glyph unicode="&#xa3;" d="M141 0v129q84 0 134.5 57.5t50.5 186.5v291h-185v127h185v251q0 180 104 280.5t262 100.5q87 0 168 -20l-16 -137q-80 24 -150 24q-114 0 -172.5 -69t-58.5 -189v-241h336l-15 -127h-321v-302q0 -151 -82 -229h500l-15 -133h-725z" />
<glyph unicode="&#xa4;" d="M61 346l134 133q-72 104 -72 223q0 120 72 224l-134 133l93 92l133 -133q99 72 223 72t223 -72l133 133l92 -92l-133 -133q72 -104 72 -224q0 -119 -72 -223l133 -133l-92 -92l-133 133q-99 -72 -223 -72t-223 72l-133 -133zM252 702q0 -109 75.5 -185.5t182.5 -76.5 t182.5 76.5t75.5 185.5t-75.5 186t-182.5 77t-182.5 -77t-75.5 -186z" />
<glyph unicode="&#xa5;" d="M10 1403h158l350 -696l336 696h158l-320 -623h271l-15 -131h-323l-45 -90v-94h383l-15 -131h-368v-334h-138v334h-376v131h376v94l-45 90h-331v131h264z" />
<glyph unicode="&#xa6;" horiz-adv-x="485" d="M182 -264v747h121v-747h-121zM182 801v747h121v-747h-121z" />
<glyph unicode="&#xa7;" horiz-adv-x="872" d="M86 618q0 97 51 168.5t142 131.5q-142 96 -142 243q0 139 89.5 222t250.5 83q91 0 203 -32l-18 -138q-103 43 -195 43q-90 0 -142.5 -41.5t-52.5 -115.5q0 -51 28.5 -92t73.5 -71t100 -59t110 -63.5t100 -76.5t73.5 -106.5t28.5 -144.5q0 -97 -50.5 -168t-141.5 -131 q141 -96 141 -243q0 -138 -91.5 -225t-250.5 -87q-118 0 -250 49l19 142q153 -64 241 -64q90 0 143.5 48t53.5 116q0 51 -28.5 92t-73.5 71t-100 59t-110 63.5t-100 76t-73.5 106t-28.5 144.5zM221 639q0 -57 18.5 -101.5t64.5 -83.5t74.5 -57t96.5 -55q17 -9 25 -14 q151 92 151 221q0 46 -15.5 86t-36 67t-59.5 56.5t-66.5 45.5t-76.5 43q-16 9 -24 13q-73 -45 -112.5 -97.5t-39.5 -123.5z" />
<glyph unicode="&#xa8;" horiz-adv-x="587" d="M31 1219v172h157v-172h-157zM399 1219v172h158v-172h-158z" />
<glyph unicode="&#xa9;" horiz-adv-x="1671" d="M119 702q0 146 57 279t153 229t228.5 152.5t278.5 56.5t278.5 -56.5t228 -152.5t152.5 -229t57 -279q0 -147 -56.5 -280t-152.5 -229t-228.5 -152.5t-278.5 -56.5t-278.5 56.5t-228.5 152.5t-153 229t-57 280zM244 702q0 -165 79 -304.5t215.5 -220.5t297.5 -81t297 81 t215 220.5t79 304.5t-79 304.5t-215 220t-297 80.5t-297.5 -80.5t-215.5 -220t-79 -304.5zM504 713q0 217 100.5 318.5t265.5 101.5q87 0 177 -33l-13 -109q-85 33 -153 33q-119 0 -182.5 -78t-63.5 -233q0 -154 62.5 -234t174.5 -80q91 0 170 45l13 -108q-83 -45 -193 -45 q-76 0 -138.5 23t-113 71.5t-78.5 132t-28 195.5z" />
<glyph unicode="&#xaa;" horiz-adv-x="702" d="M82 750q0 58 24.5 101t66.5 66.5t88.5 34.5t100.5 13h91v49q0 110 -136 110q-90 0 -184 -32l-12 108q122 31 215 31q114 0 178 -54t64 -153v-467h-99l-20 76q-82 -88 -178 -88q-77 0 -138 54t-61 151zM207 756q0 -45 30.5 -75t75.5 -30q66 0 140 74v149q-35 2 -80 0 q-166 -6 -166 -118z" />
<glyph unicode="&#xab;" horiz-adv-x="1024" d="M96 520l266 402h150l-246 -402l246 -403h-150zM469 520l266 402h150l-246 -402l246 -403h-150z" />
<glyph unicode="&#xac;" d="M49 659v132h889v-467h-131v335h-758z" />
<glyph unicode="&#xad;" horiz-adv-x="714" d="M106 489v138h508l-14 -138h-494z" />
<glyph unicode="&#xae;" horiz-adv-x="1671" d="M119 702q0 146 57 279t153 229t228.5 152.5t278.5 56.5t278.5 -56.5t228 -152.5t152.5 -229t57 -279q0 -147 -56.5 -280t-152.5 -229t-228.5 -152.5t-278.5 -56.5t-278.5 56.5t-228.5 152.5t-153 229t-57 280zM244 702q0 -165 79 -304.5t215.5 -220.5t297.5 -81t297 81 t215 220.5t79 304.5t-79 304.5t-215 220t-297 80.5t-297.5 -80.5t-215.5 -220t-79 -304.5zM594 303v815q142 4 190 2q135 -3 214 -62t79 -177q0 -166 -164 -213l244 -365h-156l-217 344h-59v-344h-131zM725 752h47q176 0 176 129q0 131 -176 131l-47 -2v-258z" />
<glyph unicode="&#xaf;" horiz-adv-x="548" d="M31 1266v131h495l-14 -131h-481z" />
<glyph unicode="&#xb0;" horiz-adv-x="765" d="M117 1190q0 110 78 188t188 78t188 -78t78 -188t-78 -188t-188 -78t-188 78t-78 188zM236 1190q0 -63 43 -108.5t104 -45.5t104 45.5t43 108.5t-43 108t-104 45t-104 -45t-43 -108z" />
<glyph unicode="&#xb1;" d="M51 18v132h926l-14 -132h-912zM51 557v131h395v332h132v-332h399l-14 -131h-385v-326h-132v326h-395z" />
<glyph unicode="&#xb2;" horiz-adv-x="659" d="M72 821v99l186 208q63 71 91.5 106.5t53.5 83t25 87.5q0 63 -41.5 96t-103.5 33q-70 0 -185 -49l-10 104q115 49 209 49q108 0 183 -61t75 -170q0 -71 -35.5 -139t-134.5 -174l-156 -168h342l-10 -105h-489z" />
<glyph unicode="&#xb3;" horiz-adv-x="659" d="M76 846l10 108q102 -41 186 -41q79 0 125.5 38.5t46.5 105.5q0 59 -49.5 94t-144.5 35h-72v98h35q213 0 213 131q0 55 -40.5 87t-102.5 32q-81 0 -183 -41l-10 104q103 41 201 41q111 0 186.5 -58.5t75.5 -160.5q0 -60 -37 -105.5t-102 -70.5q75 -25 116 -76t41 -123 q0 -105 -74 -170t-216 -65q-83 0 -205 37z" />
<glyph unicode="&#xb4;" horiz-adv-x="442" d="M31 1198l192 287h189l-246 -287h-135z" />
<glyph unicode="&#xb5;" horiz-adv-x="1083" d="M172 -395v1433h131v-729q0 -96 44.5 -149.5t135.5 -53.5q58 0 126 29.5t169 102.5v800h133v-1038h-102l-23 119q-106 -76 -179.5 -107.5t-151.5 -31.5q-90 0 -152 38v-413h-131z" />
<glyph unicode="&#xb6;" horiz-adv-x="1042" d="M66 1065q0 74 27.5 141.5t79 122t135 87t186.5 32.5l75 -4v-1708h-127v946q-121 10 -208.5 68.5t-127.5 140t-40 174.5zM733 -264v1710h127v-1710h-127z" />
<glyph unicode="&#xb7;" horiz-adv-x="436" d="M139 461v194h180v-194h-180z" />
<glyph unicode="&#xb8;" horiz-adv-x="389" d="M31 -356l14 116q47 -14 86 -14q51 0 78 29t27 78q0 31 -10 68t-20 58l-11 21h108q6 -9 15 -24.5t24.5 -63t15.5 -94.5q0 -92 -61 -140.5t-152 -48.5q-55 0 -114 15z" />
<glyph unicode="&#xb9;" horiz-adv-x="659" d="M123 1501l196 125h109v-700h164l-10 -105h-455v105h176v575l-170 -108z" />
<glyph unicode="&#xba;" horiz-adv-x="702" d="M72 889q0 178 76 260t204 82t204.5 -82.5t76.5 -259.5q0 -179 -76.5 -261.5t-204.5 -82.5t-204 82.5t-76 261.5zM197 889q0 -119 40.5 -180.5t114.5 -61.5t115 61.5t41 180.5q0 118 -40.5 178.5t-115.5 60.5t-115 -60.5t-40 -178.5z" />
<glyph unicode="&#xbb;" horiz-adv-x="1024" d="M139 117l246 403l-246 402h150l266 -402l-266 -403h-150zM512 117l246 403l-246 402h150l266 -402l-266 -403h-150z" />
<glyph unicode="&#xbc;" horiz-adv-x="1593" d="M123 1237l196 125h109v-700h164l-10 -105h-455v105h176v575l-170 -109zM375 -143l760 1628h125l-760 -1628h-125zM963 193v92l319 520h168v-508h109l-11 -104h-98v-193h-125v193h-362zM1092 297h233l2 387z" />
<glyph unicode="&#xbd;" horiz-adv-x="1593" d="M123 1237l196 125h109v-700h164l-10 -105h-455v105h176v575l-170 -109zM354 -143l760 1628h125l-760 -1628h-125zM1006 0v98l186 209q63 71 91.5 106.5t53.5 83t25 87.5q0 63 -41.5 96t-103.5 33q-70 0 -185 -49l-10 104q115 49 209 49q108 0 183 -61t75 -170 q0 -71 -35.5 -139.5t-134.5 -174.5l-156 -168h342l-10 -104h-489z" />
<glyph unicode="&#xbe;" horiz-adv-x="1593" d="M76 582l10 108q102 -41 186 -41q79 0 125.5 38.5t46.5 105.5q0 59 -49.5 94t-144.5 35h-72v98h35q213 0 213 131q0 55 -40.5 87t-102.5 32q-81 0 -183 -41l-10 104q103 41 201 41q111 0 186.5 -58.5t75.5 -160.5q0 -60 -37 -105.5t-102 -70.5q75 -25 116 -76t41 -123 q0 -105 -74 -170t-216 -65q-83 0 -205 37zM375 -143l760 1628h125l-760 -1628h-125zM963 193v92l319 520h168v-508h109l-11 -104h-98v-193h-125v193h-362zM1092 297h233l2 387z" />
<glyph unicode="&#xbf;" horiz-adv-x="849" d="M96 -33q0 83 30.5 156t74 129t86.5 112t73.5 130t30.5 159v11h139v-31q0 -85 -30.5 -163t-73.5 -137t-86 -114.5t-73.5 -118t-30.5 -123.5q0 -111 64 -170t169 -59q58 0 117.5 18t148.5 58l19 -141q-156 -68 -295 -68q-96 0 -178 41t-133.5 122.5t-51.5 188.5zM371 844 v194h180v-194h-180z" />
<glyph unicode="&#xc0;" horiz-adv-x="1097" d="M12 0l453 1403h168l452 -1403h-153l-113 367h-543l-110 -367h-154zM291 1815h188l193 -287h-135zM315 494h465l-235 757z" />
<glyph unicode="&#xc1;" horiz-adv-x="1097" d="M12 0l453 1403h168l452 -1403h-153l-113 367h-543l-110 -367h-154zM315 494h465l-235 757zM444 1528l193 287h188l-245 -287h-136z" />
<glyph unicode="&#xc2;" horiz-adv-x="1097" d="M12 0l453 1403h168l452 -1403h-153l-113 367h-543l-110 -367h-154zM274 1528l181 287h190l180 -287h-135l-141 186l-139 -186h-136zM315 494h465l-235 757z" />
<glyph unicode="&#xc3;" horiz-adv-x="1097" d="M12 0l453 1403h168l452 -1403h-153l-113 367h-543l-110 -367h-154zM244 1714q9 8 24.5 20t65 32t98.5 20q50 0 96.5 -24.5t88 -49t77.5 -24.5q34 0 71 15t57 29l20 15l14 -113q-3 -3 -9 -7.5t-25 -17t-40 -22t-52 -17t-62 -7.5q-50 0 -96.5 24.5t-88 49t-77.5 24.5 q-34 0 -71 -14.5t-57 -29.5l-20 -15zM315 494h465l-235 757z" />
<glyph unicode="&#xc4;" horiz-adv-x="1097" d="M12 0l453 1403h168l452 -1403h-153l-113 367h-543l-110 -367h-154zM287 1561v172h157v-172h-157zM315 494h465l-235 757zM655 1561v172h158v-172h-158z" />
<glyph unicode="&#xc5;" horiz-adv-x="1097" d="M12 0l453 1403q-58 25 -93.5 77t-35.5 117q0 88 62.5 150.5t150.5 62.5t150.5 -62.5t62.5 -150.5q0 -65 -35.5 -117t-93.5 -77l452 -1403h-153l-113 367h-543l-110 -367h-154zM315 494h465l-235 757zM430 1597q0 -51 34.5 -86.5t84.5 -35.5t84.5 35.5t34.5 86.5t-35 87 t-84 36t-84 -36t-35 -87z" />
<glyph unicode="&#xc6;" horiz-adv-x="1550" d="M-29 0l746 1403h727l-14 -133h-512v-479h464l-14 -134h-450v-524h546l-14 -133h-670v367h-452l-187 -367h-170zM391 494h389v766z" />
<glyph unicode="&#xc7;" horiz-adv-x="1054" d="M115 702q0 129 20.5 236.5t59 185.5t90.5 136t117.5 93.5t137.5 52.5t154 17q133 0 279 -51l-19 -143q-143 61 -268 61q-209 0 -320.5 -148t-111.5 -440q0 -289 110.5 -439t307.5 -150q150 0 299 88l18 -146q-108 -60 -258 -73q5 -8 12.5 -22t20 -56.5t12.5 -85.5 q0 -92 -61 -140.5t-152 -48.5q-55 0 -114 15l14 116q47 -14 86 -14q51 0 77.5 29t26.5 78q0 28 -8 60.5t-16 50.5l-8 18q-86 8 -160 37t-138.5 85t-110 136.5t-71.5 198t-26 263.5z" />
<glyph unicode="&#xc8;" horiz-adv-x="952" d="M182 0v1403h664l-15 -133h-512v-479h465l-14 -134h-451v-524h547l-14 -133h-670zM254 1815h188l193 -287h-135z" />
<glyph unicode="&#xc9;" horiz-adv-x="952" d="M182 0v1403h664l-15 -133h-512v-479h465l-14 -134h-451v-524h547l-14 -133h-670zM408 1528l192 287h188l-245 -287h-135z" />
<glyph unicode="&#xca;" horiz-adv-x="952" d="M182 0v1403h664l-15 -133h-512v-479h465l-14 -134h-451v-524h547l-14 -133h-670zM238 1528l180 287h190l180 -287h-135l-141 186l-139 -186h-135z" />
<glyph unicode="&#xcb;" horiz-adv-x="952" d="M182 0v1403h664l-15 -133h-512v-479h465l-14 -134h-451v-524h547l-14 -133h-670zM250 1561v172h158v-172h-158zM618 1561v172h158v-172h-158z" />
<glyph unicode="&#xcc;" horiz-adv-x="501" d="M-8 1815h188l193 -287h-135zM182 0v1403h137v-1403h-137z" />
<glyph unicode="&#xcd;" horiz-adv-x="501" d="M145 1528l193 287h188l-245 -287h-136zM182 0v1403h137v-1403h-137z" />
<glyph unicode="&#xce;" horiz-adv-x="501" d="M-25 1528l181 287h190l180 -287h-135l-141 186l-139 -186h-136zM182 0v1403h137v-1403h-137z" />
<glyph unicode="&#xcf;" horiz-adv-x="501" d="M-12 1561v172h157v-172h-157zM182 0v1403h137v-1403h-137zM356 1561v172h158v-172h-158z" />
<glyph unicode="&#xd0;" horiz-adv-x="1259" d="M33 662v131h166v608q188 6 297 4q115 -1 211.5 -24.5t180 -76.5t141 -132.5t90 -199t32.5 -270.5q0 -152 -32.5 -271.5t-90 -199.5t-141 -132.5t-180 -76t-211.5 -24.5q-109 -2 -297 4v660h-166zM336 129q73 -2 149 -2q265 0 396 142.5t131 432.5q0 574 -527 574l-149 -2 v-481h295l-15 -131h-280v-533z" />
<glyph unicode="&#xd1;" horiz-adv-x="1280" d="M182 0v1403h209l582 -1245l-4 1245h129v-1403h-209l-582 1245l4 -1245h-129zM334 1714q9 8 24.5 20t65 32t98.5 20q50 0 96.5 -24.5t88 -49t77.5 -24.5q34 0 71 15t57 29l20 15l14 -113q-3 -3 -9 -7.5t-25 -17t-40 -22t-52 -17t-62 -7.5q-50 0 -96.5 24.5t-88 49 t-77.5 24.5q-34 0 -71 -14.5t-57 -29.5l-20 -15z" />
<glyph unicode="&#xd2;" horiz-adv-x="1327" d="M119 702q0 192 42.5 334.5t118.5 225t172 122t212 39.5q92 0 171.5 -24t149 -78.5t118.5 -136.5t77 -205t28 -277q0 -155 -28 -278t-77 -205.5t-118.5 -136.5t-149 -78t-171.5 -24t-171.5 24t-149 78t-119 136.5t-77.5 205.5t-28 278zM258 702q0 -292 106 -444t300 -152 t299.5 152t105.5 444t-105.5 443t-299.5 151t-300 -151.5t-106 -442.5zM406 1815h188l192 -287h-135z" />
<glyph unicode="&#xd3;" horiz-adv-x="1327" d="M119 702q0 192 42.5 334.5t118.5 225t172 122t212 39.5q92 0 171.5 -24t149 -78.5t118.5 -136.5t77 -205t28 -277q0 -155 -28 -278t-77 -205.5t-118.5 -136.5t-149 -78t-171.5 -24t-171.5 24t-149 78t-119 136.5t-77.5 205.5t-28 278zM258 702q0 -292 106 -444t300 -152 t299.5 152t105.5 444t-105.5 443t-299.5 151t-300 -151.5t-106 -442.5zM559 1528l193 287h188l-246 -287h-135z" />
<glyph unicode="&#xd4;" horiz-adv-x="1327" d="M119 702q0 192 42.5 334.5t118.5 225t172 122t212 39.5q92 0 171.5 -24t149 -78.5t118.5 -136.5t77 -205t28 -277q0 -155 -28 -278t-77 -205.5t-118.5 -136.5t-149 -78t-171.5 -24t-171.5 24t-149 78t-119 136.5t-77.5 205.5t-28 278zM258 702q0 -292 106 -444t300 -152 t299.5 152t105.5 444t-105.5 443t-299.5 151t-300 -151.5t-106 -442.5zM389 1528l180 287h191l180 -287h-135l-141 186l-140 -186h-135z" />
<glyph unicode="&#xd5;" horiz-adv-x="1327" d="M119 702q0 192 42.5 334.5t118.5 225t172 122t212 39.5q92 0 171.5 -24t149 -78.5t118.5 -136.5t77 -205t28 -277q0 -155 -28 -278t-77 -205.5t-118.5 -136.5t-149 -78t-171.5 -24t-171.5 24t-149 78t-119 136.5t-77.5 205.5t-28 278zM258 702q0 -292 106 -444t300 -152 t299.5 152t105.5 444t-105.5 443t-299.5 151t-300 -151.5t-106 -442.5zM358 1714q9 8 25 20t65.5 32t98.5 20q50 0 96.5 -24.5t88 -49t77.5 -24.5q34 0 70.5 15t56.5 29l20 15l15 -113q-9 -8 -25 -20t-65.5 -31.5t-98.5 -19.5q-50 0 -96.5 24.5t-88 49t-77.5 24.5 q-34 0 -70.5 -14.5t-56.5 -29.5l-20 -15z" />
<glyph unicode="&#xd6;" horiz-adv-x="1327" d="M119 702q0 192 42.5 334.5t118.5 225t172 122t212 39.5q92 0 171.5 -24t149 -78.5t118.5 -136.5t77 -205t28 -277q0 -155 -28 -278t-77 -205.5t-118.5 -136.5t-149 -78t-171.5 -24t-171.5 24t-149 78t-119 136.5t-77.5 205.5t-28 278zM258 702q0 -292 106 -444t300 -152 t299.5 152t105.5 444t-105.5 443t-299.5 151t-300 -151.5t-106 -442.5zM401 1561v172h158v-172h-158zM770 1561v172h158v-172h-158z" />
<glyph unicode="&#xd7;" d="M92 231l326 326l-326 326l92 92l326 -326l326 326l92 -92l-326 -326l326 -326l-92 -92l-326 326l-326 -326z" />
<glyph unicode="&#xd8;" horiz-adv-x="1327" d="M119 702q0 192 42.5 334.5t118.5 225t172 122t212 39.5q130 0 229 -45l84 189h143l-116 -260q204 -184 204 -605q0 -155 -28 -278t-77 -205.5t-118.5 -136.5t-149 -78t-171.5 -24q-131 0 -230 45l-84 -189h-143l117 260q-205 185 -205 606zM258 702q0 -318 125 -471 l457 1026q-77 39 -176 39q-194 0 -300 -151.5t-106 -442.5zM487 145q77 -39 177 -39q194 0 299.5 152t105.5 444q0 316 -125 469z" />
<glyph unicode="&#xd9;" horiz-adv-x="1245" d="M162 449v954h137v-932q0 -175 80 -270t244 -95t243.5 95t79.5 270v932h137v-954q0 -235 -124.5 -352t-335.5 -117t-336 117t-125 352zM365 1815h188l192 -287h-135z" />
<glyph unicode="&#xda;" horiz-adv-x="1245" d="M162 449v954h137v-932q0 -175 80 -270t244 -95t243.5 95t79.5 270v932h137v-954q0 -235 -124.5 -352t-335.5 -117t-336 117t-125 352zM518 1528l193 287h188l-246 -287h-135z" />
<glyph unicode="&#xdb;" horiz-adv-x="1245" d="M162 449v954h137v-932q0 -175 80 -270t244 -95t243.5 95t79.5 270v932h137v-954q0 -235 -124.5 -352t-335.5 -117t-336 117t-125 352zM348 1528l180 287h191l180 -287h-135l-141 186l-140 -186h-135z" />
<glyph unicode="&#xdc;" horiz-adv-x="1245" d="M162 449v954h137v-932q0 -175 80 -270t244 -95t243.5 95t79.5 270v932h137v-954q0 -235 -124.5 -352t-335.5 -117t-336 117t-125 352zM360 1561v172h158v-172h-158zM729 1561v172h158v-172h-158z" />
<glyph unicode="&#xdd;" horiz-adv-x="1001" d="M0 1403h158l350 -696l336 696h157l-432 -844v-559h-137v559zM395 1528l193 287h188l-246 -287h-135z" />
<glyph unicode="&#xde;" horiz-adv-x="1005" d="M182 0v1403h137v-219q72 2 144 0q104 -2 189 -27t150.5 -75t101.5 -131t36 -187q0 -89 -25 -159t-69.5 -118t-109.5 -79.5t-141.5 -45.5t-168.5 -14l-107 2v-350h-137zM319 477q54 -2 107 -2q375 0 375 289q0 291 -375 291l-107 -2v-576z" />
<glyph unicode="&#xdf;" horiz-adv-x="1058" d="M150 0v1065q0 185 114.5 290t286.5 105q141 0 231 -65.5t90 -186.5q0 -57 -18 -102t-47 -73t-64 -51t-70.5 -42t-64.5 -39.5t-47 -50t-18 -66.5q0 -43 25.5 -77t66.5 -58.5t90 -48.5t98.5 -52t90.5 -62t66.5 -86.5t25.5 -118.5q0 -133 -89 -217t-253 -84q-118 0 -250 49 l18 141q153 -64 242 -64q95 0 145.5 45.5t50.5 108.5q0 49 -25.5 88.5t-66 66t-90 51t-99 51t-90 58t-66 80t-25.5 109.5q0 60 18.5 107.5t47.5 78t64.5 55.5t70.5 45.5t64 41.5t47.5 50t18.5 66q0 62 -49.5 96.5t-136.5 34.5q-52 0 -98.5 -15t-86.5 -47t-63.5 -88.5 t-23.5 -131.5v-1057h-131z" />
<glyph unicode="&#xe0;" horiz-adv-x="952" d="M96 301q0 72 26 129.5t69 93.5t102.5 60t120 34.5t129.5 12.5l137 -2v102q0 98 -47.5 149.5t-165.5 51.5q-54 0 -110 -9.5t-89 -19.5t-92 -29l-18 138q172 47 309 47q165 0 255.5 -77.5t90.5 -225.5v-756h-102l-21 119q-134 -139 -280 -139q-55 0 -109.5 20t-101 58.5 t-75 101.5t-28.5 141zM217 1485h189l192 -287h-135zM229 295q0 -84 56.5 -136.5t142.5 -52.5q63 0 122 30.5t130 101.5v272l-145 2q-144 -3 -225 -58.5t-81 -158.5z" />
<glyph unicode="&#xe1;" horiz-adv-x="952" d="M96 301q0 72 26 129.5t69 93.5t102.5 60t120 34.5t129.5 12.5l137 -2v102q0 98 -47.5 149.5t-165.5 51.5q-54 0 -110 -9.5t-89 -19.5t-92 -29l-18 138q172 47 309 47q165 0 255.5 -77.5t90.5 -225.5v-756h-102l-21 119q-134 -139 -280 -139q-55 0 -109.5 20t-101 58.5 t-75 101.5t-28.5 141zM229 295q0 -84 56.5 -136.5t142.5 -52.5q63 0 122 30.5t130 101.5v272l-145 2q-144 -3 -225 -58.5t-81 -158.5zM371 1198l192 287h189l-246 -287h-135z" />
<glyph unicode="&#xe2;" horiz-adv-x="952" d="M96 301q0 72 26 129.5t69 93.5t102.5 60t120 34.5t129.5 12.5l137 -2v102q0 98 -47.5 149.5t-165.5 51.5q-54 0 -110 -9.5t-89 -19.5t-92 -29l-18 138q172 47 309 47q165 0 255.5 -77.5t90.5 -225.5v-756h-102l-21 119q-134 -139 -280 -139q-55 0 -109.5 20t-101 58.5 t-75 101.5t-28.5 141zM201 1198l180 287h190l181 -287h-136l-141 186l-139 -186h-135zM229 295q0 -84 56.5 -136.5t142.5 -52.5q63 0 122 30.5t130 101.5v272l-145 2q-144 -3 -225 -58.5t-81 -158.5z" />
<glyph unicode="&#xe3;" horiz-adv-x="952" d="M96 301q0 72 26 129.5t69 93.5t102.5 60t120 34.5t129.5 12.5l137 -2v102q0 98 -47.5 149.5t-165.5 51.5q-54 0 -110 -9.5t-89 -19.5t-92 -29l-18 138q172 47 309 47q165 0 255.5 -77.5t90.5 -225.5v-756h-102l-21 119q-134 -139 -280 -139q-55 0 -109.5 20t-101 58.5 t-75 101.5t-28.5 141zM170 1372q9 8 24.5 20t65 32t98.5 20q50 0 97 -24.5t88.5 -49t77.5 -24.5q34 0 70.5 15t56.5 29l20 15l14 -113q-3 -3 -9 -7.5t-25 -17t-40 -22t-52 -17t-62 -7.5q-50 0 -96.5 24.5t-88 49t-77.5 24.5q-34 0 -71 -14.5t-57 -29.5l-20 -15zM229 295 q0 -84 56.5 -136.5t142.5 -52.5q63 0 122 30.5t130 101.5v272l-145 2q-144 -3 -225 -58.5t-81 -158.5z" />
<glyph unicode="&#xe4;" horiz-adv-x="952" d="M96 301q0 72 26 129.5t69 93.5t102.5 60t120 34.5t129.5 12.5l137 -2v102q0 98 -47.5 149.5t-165.5 51.5q-54 0 -110 -9.5t-89 -19.5t-92 -29l-18 138q172 47 309 47q165 0 255.5 -77.5t90.5 -225.5v-756h-102l-21 119q-134 -139 -280 -139q-55 0 -109.5 20t-101 58.5 t-75 101.5t-28.5 141zM213 1219v172h158v-172h-158zM229 295q0 -84 56.5 -136.5t142.5 -52.5q63 0 122 30.5t130 101.5v272l-145 2q-144 -3 -225 -58.5t-81 -158.5zM582 1219v172h157v-172h-157z" />
<glyph unicode="&#xe5;" horiz-adv-x="952" d="M96 301q0 72 26 129.5t69 93.5t102.5 60t120 34.5t129.5 12.5l137 -2v102q0 98 -47.5 149.5t-165.5 51.5q-54 0 -110 -9.5t-89 -19.5t-92 -29l-18 138q172 47 309 47q165 0 255.5 -77.5t90.5 -225.5v-756h-102l-21 119q-134 -139 -280 -139q-55 0 -109.5 20t-101 58.5 t-75 101.5t-28.5 141zM229 295q0 -84 56.5 -136.5t142.5 -52.5q63 0 122 30.5t130 101.5v272l-145 2q-144 -3 -225 -58.5t-81 -158.5zM262 1393q0 88 62.5 150.5t150.5 62.5t150.5 -62.5t62.5 -150.5t-62.5 -150.5t-150.5 -62.5t-150.5 62.5t-62.5 150.5zM356 1393 q0 -51 35 -87t84 -36t84 36t35 87t-35 87t-84 36t-84 -36t-35 -87z" />
<glyph unicode="&#xe6;" horiz-adv-x="1521" d="M96 301q0 72 26 129.5t69 93.5t102.5 60t120 34.5t129.5 12.5l137 -2v102q0 98 -47.5 149.5t-165.5 51.5q-54 0 -110 -9.5t-89 -19.5t-92 -29l-18 138q172 47 309 47q227 0 311 -146q106 146 309 146q187 0 278.5 -142.5t64.5 -437.5h-617q6 -184 77 -278.5t202 -94.5 q56 0 113.5 13t87 24.5t83.5 34.5l19 -141q-149 -57 -310 -57q-225 0 -329 178q-84 -91 -163.5 -134.5t-186.5 -43.5q-54 0 -107.5 20t-99.5 58.5t-74.5 101.5t-28.5 141zM229 295q0 -84 56.5 -136.5t142.5 -52.5q66 0 132.5 36.5t148.5 127.5q-28 99 -31 240l-143 2 q-144 -3 -225 -58.5t-81 -158.5zM815 602h488q7 170 -51.5 253t-161.5 83q-117 0 -188.5 -85.5t-86.5 -250.5z" />
<glyph unicode="&#xe7;" horiz-adv-x="806" d="M109 520q0 116 21.5 207.5t59 153t92 102t117 58.5t136.5 18q97 0 204 -39l-18 -137q-103 49 -197 49q-282 0 -282 -412q0 -205 71.5 -309.5t200.5 -104.5q106 0 219 72l19 -141q-75 -44 -183 -55q5 -8 12.5 -22t20 -56.5t12.5 -85.5q0 -92 -61 -140.5t-152 -48.5 q-55 0 -114 15l14 116q47 -14 86 -14q51 0 78 29t27 78q0 26 -8 59t-16 52l-9 20q-161 22 -255.5 152t-94.5 384z" />
<glyph unicode="&#xe8;" horiz-adv-x="952" d="M109 520q0 144 31 250t88 168t129 91.5t161 29.5q187 0 278 -142.5t64 -437.5h-616q6 -184 76.5 -278.5t201.5 -94.5q56 0 113.5 13t88 24.5t83.5 34.5l18 -141q-149 -57 -309 -57q-70 0 -129.5 17.5t-111.5 58.5t-88.5 102.5t-57 153.5t-20.5 208zM244 1485h188 l193 -287h-136zM246 602h487q7 170 -51.5 253t-161.5 83q-117 0 -188 -85.5t-86 -250.5z" />
<glyph unicode="&#xe9;" horiz-adv-x="952" d="M109 520q0 144 31 250t88 168t129 91.5t161 29.5q187 0 278 -142.5t64 -437.5h-616q6 -184 76.5 -278.5t201.5 -94.5q56 0 113.5 13t88 24.5t83.5 34.5l18 -141q-149 -57 -309 -57q-70 0 -129.5 17.5t-111.5 58.5t-88.5 102.5t-57 153.5t-20.5 208zM246 602h487 q7 170 -51.5 253t-161.5 83q-117 0 -188 -85.5t-86 -250.5zM397 1198l193 287h188l-246 -287h-135z" />
<glyph unicode="&#xea;" horiz-adv-x="952" d="M109 520q0 144 31 250t88 168t129 91.5t161 29.5q187 0 278 -142.5t64 -437.5h-616q6 -184 76.5 -278.5t201.5 -94.5q56 0 113.5 13t88 24.5t83.5 34.5l18 -141q-149 -57 -309 -57q-70 0 -129.5 17.5t-111.5 58.5t-88.5 102.5t-57 153.5t-20.5 208zM227 1198l181 287h190 l180 -287h-135l-141 186l-140 -186h-135zM246 602h487q7 170 -51.5 253t-161.5 83q-117 0 -188 -85.5t-86 -250.5z" />
<glyph unicode="&#xeb;" horiz-adv-x="952" d="M109 520q0 144 31 250t88 168t129 91.5t161 29.5q187 0 278 -142.5t64 -437.5h-616q6 -184 76.5 -278.5t201.5 -94.5q56 0 113.5 13t88 24.5t83.5 34.5l18 -141q-149 -57 -309 -57q-70 0 -129.5 17.5t-111.5 58.5t-88.5 102.5t-57 153.5t-20.5 208zM240 1219v172h157 v-172h-157zM246 602h487q7 170 -51.5 253t-161.5 83q-117 0 -188 -85.5t-86 -250.5zM608 1219v172h158v-172h-158z" />
<glyph unicode="&#xec;" horiz-adv-x="477" d="M-20 1485h188l192 -287h-135zM172 0v1038h133v-1038h-133z" />
<glyph unicode="&#xed;" horiz-adv-x="477" d="M133 1198l193 287h188l-246 -287h-135zM172 0v1038h133v-1038h-133z" />
<glyph unicode="&#xee;" horiz-adv-x="477" d="M-37 1198l180 287h191l180 -287h-135l-141 186l-140 -186h-135zM172 0v1038h133v-1038h-133z" />
<glyph unicode="&#xef;" horiz-adv-x="477" d="M-25 1219v172h158v-172h-158zM172 0v1038h133v-1038h-133zM344 1219v172h158v-172h-158z" />
<glyph unicode="&#xf0;" horiz-adv-x="1005" d="M84 449q0 202 104 334t271 132q176 0 307 -176q-4 245 -82 398l-199 -144v152l129 92q-93 96 -229 96q-90 0 -215 -41l-18 138q113 30 225 30q211 0 344 -145l178 127v-152l-106 -76q106 -192 106 -512q0 -194 -34 -337.5t-94.5 -225.5t-134.5 -120.5t-163 -38.5 q-176 0 -282.5 134t-106.5 335zM217 449q0 -149 70 -249t186 -100q124 0 201 126t86 370q-17 27 -39 54.5t-59.5 63t-87.5 57.5t-103 22q-116 0 -185 -97.5t-69 -246.5z" />
<glyph unicode="&#xf1;" horiz-adv-x="1069" d="M172 0v1038h102l21 -125q110 79 185.5 112.5t154.5 33.5q126 0 205.5 -82.5t79.5 -231.5v-745h-134v729q0 96 -44.5 149.5t-135.5 53.5q-114 0 -301 -135v-797h-133zM250 1372q9 8 24.5 20t65 32t98.5 20q50 0 96.5 -24.5t88 -49t77.5 -24.5q34 0 71 15t57 29l20 15 l14 -113q-3 -3 -9 -7.5t-25 -17t-40 -22t-52 -17t-62 -7.5q-50 0 -96.5 24.5t-88 49t-77.5 24.5q-34 0 -71 -14.5t-57 -29.5l-20 -15z" />
<glyph unicode="&#xf2;" horiz-adv-x="1036" d="M109 520q0 144 31 250t88 168t129 91.5t161 29.5q71 0 131 -18t112 -58.5t88.5 -102t57.5 -153t21 -207.5t-21 -208t-57.5 -153.5t-88.5 -102t-112 -58.5t-131 -18q-89 0 -161 29.5t-129 91t-88 168t-31 251.5zM242 520q0 -207 72 -313.5t204 -106.5t204.5 107t72.5 313 t-72 312t-205 106q-132 0 -204 -106t-72 -312zM260 1485h189l192 -287h-135z" />
<glyph unicode="&#xf3;" horiz-adv-x="1036" d="M109 520q0 144 31 250t88 168t129 91.5t161 29.5q71 0 131 -18t112 -58.5t88.5 -102t57.5 -153t21 -207.5t-21 -208t-57.5 -153.5t-88.5 -102t-112 -58.5t-131 -18q-89 0 -161 29.5t-129 91t-88 168t-31 251.5zM242 520q0 -207 72 -313.5t204 -106.5t204.5 107t72.5 313 t-72 312t-205 106q-132 0 -204 -106t-72 -312zM414 1198l192 287h189l-246 -287h-135z" />
<glyph unicode="&#xf4;" horiz-adv-x="1036" d="M109 520q0 144 31 250t88 168t129 91.5t161 29.5q71 0 131 -18t112 -58.5t88.5 -102t57.5 -153t21 -207.5t-21 -208t-57.5 -153.5t-88.5 -102t-112 -58.5t-131 -18q-89 0 -161 29.5t-129 91t-88 168t-31 251.5zM242 520q0 -207 72 -313.5t204 -106.5t204.5 107t72.5 313 t-72 312t-205 106q-132 0 -204 -106t-72 -312zM244 1198l180 287h190l181 -287h-136l-141 186l-139 -186h-135z" />
<glyph unicode="&#xf5;" horiz-adv-x="1036" d="M109 520q0 144 31 250t88 168t129 91.5t161 29.5q71 0 131 -18t112 -58.5t88.5 -102t57.5 -153t21 -207.5t-21 -208t-57.5 -153.5t-88.5 -102t-112 -58.5t-131 -18q-89 0 -161 29.5t-129 91t-88 168t-31 251.5zM213 1372q9 8 24.5 20t65 32t98.5 20q50 0 97 -24.5 t88.5 -49t77.5 -24.5q34 0 70.5 15t56.5 29l20 15l14 -113q-3 -3 -9 -7.5t-25 -17t-40 -22t-52 -17t-62 -7.5q-50 0 -96.5 24.5t-88 49t-77.5 24.5q-34 0 -71 -14.5t-57 -29.5l-20 -15zM242 520q0 -207 72 -313.5t204 -106.5t204.5 107t72.5 313t-72 312t-205 106 q-132 0 -204 -106t-72 -312z" />
<glyph unicode="&#xf6;" horiz-adv-x="1036" d="M109 520q0 144 31 250t88 168t129 91.5t161 29.5q71 0 131 -18t112 -58.5t88.5 -102t57.5 -153t21 -207.5t-21 -208t-57.5 -153.5t-88.5 -102t-112 -58.5t-131 -18q-89 0 -161 29.5t-129 91t-88 168t-31 251.5zM242 520q0 -207 72 -313.5t204 -106.5t204.5 107t72.5 313 t-72 312t-205 106q-132 0 -204 -106t-72 -312zM256 1219v172h158v-172h-158zM625 1219v172h157v-172h-157z" />
<glyph unicode="&#xf7;" d="M41 492v131h946l-14 -131h-932zM408 201q0 43 29.5 72.5t72.5 29.5t72.5 -29.5t29.5 -72.5t-29.5 -73t-72.5 -30t-72.5 30t-29.5 73zM408 913q0 43 29.5 73t72.5 30t72.5 -30t29.5 -73t-29.5 -72.5t-72.5 -29.5t-72.5 29.5t-29.5 72.5z" />
<glyph unicode="&#xf8;" horiz-adv-x="1036" d="M109 520q0 144 31 250t88 168t129 91.5t161 29.5t160 -29l76 172h137l-107 -239q144 -134 144 -443q0 -116 -21 -208t-57.5 -153.5t-88.5 -102t-112 -58.5t-131 -18q-91 0 -160 28l-75 -172h-138l107 240q-143 133 -143 444zM242 520q0 -204 69 -311l316 706 q-51 23 -109 23q-132 0 -204 -106t-72 -312zM410 123q51 -23 108 -23q132 0 204.5 107t72.5 313q0 200 -70 309z" />
<glyph unicode="&#xf9;" horiz-adv-x="1062" d="M150 293v745h133v-729q0 -96 44.5 -149.5t135.5 -53.5q58 0 126 29.5t169 102.5v800h133v-1038h-103l-22 119q-105 -75 -179.5 -107t-152.5 -32q-126 0 -205 82t-79 231zM262 1485h189l192 -287h-135z" />
<glyph unicode="&#xfa;" horiz-adv-x="1062" d="M150 293v745h133v-729q0 -96 44.5 -149.5t135.5 -53.5q58 0 126 29.5t169 102.5v800h133v-1038h-103l-22 119q-105 -75 -179.5 -107t-152.5 -32q-126 0 -205 82t-79 231zM416 1198l192 287h189l-246 -287h-135z" />
<glyph unicode="&#xfb;" horiz-adv-x="1062" d="M150 293v745h133v-729q0 -96 44.5 -149.5t135.5 -53.5q58 0 126 29.5t169 102.5v800h133v-1038h-103l-22 119q-105 -75 -179.5 -107t-152.5 -32q-126 0 -205 82t-79 231zM246 1198l180 287h190l181 -287h-135l-142 186l-139 -186h-135z" />
<glyph unicode="&#xfc;" horiz-adv-x="1062" d="M150 293v745h133v-729q0 -96 44.5 -149.5t135.5 -53.5q58 0 126 29.5t169 102.5v800h133v-1038h-103l-22 119q-105 -75 -179.5 -107t-152.5 -32q-126 0 -205 82t-79 231zM258 1219v172h158v-172h-158zM627 1219v172h157v-172h-157z" />
<glyph unicode="&#xfd;" horiz-adv-x="917" d="M35 1038h147l285 -895l268 895h148l-412 -1249q-66 -199 -242 -199q-54 0 -112 15l18 129q53 -17 82 -17q98 0 135 119l54 164h-29zM354 1198l193 287h188l-246 -287h-135z" />
<glyph unicode="&#xfe;" horiz-adv-x="1044" d="M172 -395v1841h131v-516q82 73 139.5 101t128.5 28q45 0 92.5 -17t95.5 -57t86 -98t61.5 -148.5t23.5 -199.5q0 -147 -33 -258.5t-89.5 -175t-122.5 -94.5t-140 -31q-59 0 -113.5 21t-128.5 69v-465h-131zM303 188q124 -82 236 -82q113 0 185.5 109.5t72.5 323.5 q0 187 -71.5 290t-170.5 103q-61 0 -116.5 -29t-135.5 -102v-613z" />
<glyph unicode="&#xff;" horiz-adv-x="917" d="M35 1038h147l285 -895l268 895h148l-412 -1249q-66 -199 -242 -199q-54 0 -112 15l18 129q53 -17 82 -17q98 0 135 119l54 164h-29zM197 1219v172h157v-172h-157zM565 1219v172h158v-172h-158z" />
<glyph unicode="&#x152;" horiz-adv-x="1591" d="M119 702q0 192 42.5 334.5t118.5 225t172 122t212 39.5q87 0 157 -20h664l-15 -133h-512v-479h465l-14 -134h-451v-524h547l-14 -133h-670q-70 -20 -157 -20q-92 0 -171.5 24t-149 78t-119 136.5t-77.5 205.5t-28 278zM258 702q0 -292 106 -444t300 -152q84 0 157 31 v1129q-71 30 -157 30q-194 0 -300 -151.5t-106 -442.5z" />
<glyph unicode="&#x153;" horiz-adv-x="1638" d="M109 520q0 144 31 250t88 168t129 91.5t161 29.5q239 0 344 -201q103 201 342 201q187 0 278 -142.5t64 -437.5h-616q6 -184 76.5 -278.5t201.5 -94.5q56 0 113.5 13t88 24.5t83.5 34.5l18 -141q-149 -57 -309 -57q-238 0 -340 200q-105 -200 -344 -200q-89 0 -161 29.5 t-129 91t-88 168t-31 251.5zM242 520q0 -207 72 -313.5t204 -106.5t204.5 107t72.5 313t-72 312t-205 106q-132 0 -204 -106t-72 -312zM932 602h487q7 170 -51.5 253t-161.5 83q-117 0 -188 -85.5t-86 -250.5z" />
<glyph unicode="&#x178;" horiz-adv-x="1001" d="M0 1403h158l350 -696l336 696h157l-432 -844v-559h-137v559zM238 1561v172h157v-172h-157zM606 1561v172h158v-172h-158z" />
<glyph unicode="&#x2c6;" horiz-adv-x="612" d="M31 1198l180 287h190l181 -287h-136l-141 186l-139 -186h-135z" />
<glyph unicode="&#x2dc;" horiz-adv-x="657" d="M23 1372q9 8 24.5 20t65 32t98.5 20q50 0 96.5 -24.5t88 -49t77.5 -24.5q34 0 71 15t57 29l20 15l14 -113q-9 -8 -25 -20t-65.5 -31.5t-98.5 -19.5q-50 0 -96.5 24.5t-88 49t-77.5 24.5q-34 0 -70.5 -14.5t-56.5 -29.5l-20 -15z" />
<glyph unicode="&#x2000;" horiz-adv-x="907" />
<glyph unicode="&#x2001;" horiz-adv-x="1815" />
<glyph unicode="&#x2002;" horiz-adv-x="907" />
<glyph unicode="&#x2003;" horiz-adv-x="1815" />
<glyph unicode="&#x2004;" horiz-adv-x="605" />
<glyph unicode="&#x2005;" horiz-adv-x="453" />
<glyph unicode="&#x2006;" horiz-adv-x="302" />
<glyph unicode="&#x2007;" horiz-adv-x="302" />
<glyph unicode="&#x2008;" horiz-adv-x="226" />
<glyph unicode="&#x2009;" horiz-adv-x="363" />
<glyph unicode="&#x200a;" horiz-adv-x="100" />
<glyph unicode="&#x2010;" horiz-adv-x="714" d="M106 489v138h508l-14 -138h-494z" />
<glyph unicode="&#x2011;" horiz-adv-x="714" d="M106 489v138h508l-14 -138h-494z" />
<glyph unicode="&#x2012;" horiz-adv-x="714" d="M106 489v138h508l-14 -138h-494z" />
<glyph unicode="&#x2013;" d="M86 496v125h856l-14 -125h-842z" />
<glyph unicode="&#x2014;" horiz-adv-x="2039" d="M86 496v125h1876l-14 -125h-1862z" />
<glyph unicode="&#x2018;" horiz-adv-x="352" d="M47 1049l127 389h125l-80 -389h-172z" />
<glyph unicode="&#x2019;" horiz-adv-x="352" d="M53 1049l80 389h172l-127 -389h-125z" />
<glyph unicode="&#x201a;" horiz-adv-x="352" d="M53 -223l80 389h172l-127 -389h-125z" />
<glyph unicode="&#x201c;" horiz-adv-x="653" d="M47 1049l127 389h125l-80 -389h-172zM348 1049l127 389h125l-80 -389h-172z" />
<glyph unicode="&#x201d;" horiz-adv-x="653" d="M53 1049l80 389h172l-127 -389h-125zM354 1049l80 389h172l-127 -389h-125z" />
<glyph unicode="&#x201e;" horiz-adv-x="653" d="M53 -223l80 389h172l-127 -389h-125zM354 -223l80 389h172l-127 -389h-125z" />
<glyph unicode="&#x2022;" horiz-adv-x="647" d="M127 707q0 82 57.5 139t139.5 57t139 -57t57 -139t-57 -139.5t-139 -57.5t-139.5 57.5t-57.5 139.5z" />
<glyph unicode="&#x2026;" horiz-adv-x="1308" d="M139 0v195h180v-195h-180zM575 0v195h181v-195h-181zM1012 0v195h180v-195h-180z" />
<glyph unicode="&#x202f;" horiz-adv-x="363" />
<glyph unicode="&#x2039;" horiz-adv-x="651" d="M96 520l266 402h150l-246 -402l246 -403h-150z" />
<glyph unicode="&#x203a;" horiz-adv-x="651" d="M139 117l246 403l-246 402h150l266 -402l-266 -403h-150z" />
<glyph unicode="&#x205f;" horiz-adv-x="453" />
<glyph unicode="&#x20ac;" d="M-2 475v131h170q-6 97 0 193h-170v131h182q44 253 187 373t352 120q126 0 266 -51l-18 -143q-143 61 -256 61q-313 0 -387 -360h575l-14 -131h-578q-6 -96 0 -193h592l-14 -131h-561q35 -180 130.5 -271t243.5 -91q144 0 283 88l18 -146q-63 -36 -142 -55.5t-152 -19.5 q-200 0 -340.5 120.5t-184.5 374.5h-182z" />
<glyph unicode="&#x2122;" horiz-adv-x="1538" d="M0 1257v105h561l-12 -105h-209v-700h-125v700h-215zM647 557l47 805h180l175 -676l170 676h180l47 -805h-125l-33 653l-172 -653h-149l-172 653l-33 -653h-115z" />
<glyph unicode="&#x25fc;" horiz-adv-x="1034" d="M0 0v1034h1034v-1034h-1034z" />
</font>
</defs>
</svg>
