<?xml version="1.0" standalone="no"?>
<!DOCTYPE svg PUBLIC "-//W3C//DTD SVG 20010904//EN"
 "http://www.w3.org/TR/2001/REC-SVG-20010904/DTD/svg10.dtd">
<svg version="1.0" xmlns="http://www.w3.org/2000/svg"
 width="114.000000pt" height="114.000000pt" viewBox="0 0 114.000000 114.000000"
 preserveAspectRatio="xMidYMid meet">
<metadata>
Created by potrace 1.11, written by Peter Selinger 2001-2013
</metadata>
<g transform="translate(0.000000,114.000000) scale(0.100000,-0.100000)"
fill="#000000" stroke="none">
<path d="M464 1121 c-60 -27 -114 -80 -140 -136 -21 -43 -24 -66 -24 -166 0
-64 3 -118 6 -122 3 -3 22 0 42 7 l37 13 5 110 c5 100 7 113 32 145 79 103
256 85 296 -31 7 -19 12 -78 12 -132 l0 -98 48 -14 47 -14 3 106 c3 123 -8
177 -48 236 -68 99 -212 143 -316 96z"/>
<path d="M522 699 c-53 -35 -172 -71 -252 -78 l-75 -6 1 -96 c3 -200 86 -364
233 -458 54 -35 132 -65 140 -54 3 5 15 10 26 11 40 7 140 68 186 114 91 91
153 262 147 403 -3 66 -4 70 -28 73 -83 9 -192 37 -249 64 -36 17 -69 30 -73
30 -5 -1 -8 3 -8 8 0 15 -11 12 -48 -11z m100 -195 c15 -32 -3 -71 -37 -80
-33 -8 -50 -1 -70 30 -22 33 -11 64 28 81 37 16 63 6 79 -31z m8 -131 c42 -29
49 -46 50 -110 l0 -63 -115 0 -115 0 0 56 c0 66 10 88 53 114 39 24 94 26 127
3z"/>
</g>
</svg>
